<svg width="64" height="86" viewBox="0 0 64 86" fill="none" xmlns="http://www.w3.org/2000/svg">
<path d="M31.5324 85.1963L4.55606 42.2708L59.1714 42.6945L31.5324 85.1963Z" fill="white"/>
<path d="M5.5 16.5L20.5 2.99993L43.5 2.99993L58.5 16.5L5.5 16.5Z" fill="black"/>
<rect x="32" y="3" width="13.5" height="13.5" fill="black"/>
<path d="M5 30L6 16.5L57.5 16.5L59 30L5 30Z" fill="white"/>
<path d="M18.5 4L32 3L32 57L18.5 57L18.5 4Z" fill="white"/>
<path d="M18.5 30L18.5 16.5L32 16.5L32 30L18.5 30Z" fill="black"/>
<path d="M45.5 7.91535C45.5 6.58139 46.5814 5.5 47.9154 5.5V5.5C48.6053 5.5 49.2622 5.79503 49.7206 6.31068L53 10L57.8103 16.8146C58.5844 17.9112 59 19.2207 59 20.563L59 41.2519C59 43.02 58.2797 44.7118 57.0052 45.9373L56.5052 46.4181C52.3751 50.3893 45.5 47.4623 45.5 41.7326L45.5 7.91535Z" fill="white"/>
<path d="M45.5 30L45.5 16.5L58.5 16.5L59 30L45.5 30Z" fill="black"/>
<path d="M32 57L32 43.5L45.5 43.5L45.5 57L32 57Z" fill="white"/>
<path d="M18.5 57L18.5 43.5L32 43.5L32 57L18.5 57Z" fill="black"/>
<path d="M5.5 43.5L5 30L18.5 30L18.5 43.5L5.5 43.5Z" fill="black"/>
<path d="M45.5 57L45.5 43.5L59 43.5L54.3269 48.6923L45.5 57Z" fill="black"/>
<path d="M9.67307 49.7308L6 43.5L18.5 43.5L18.5 57L9.67307 49.7308Z" fill="white"/>
<rect x="32" y="30" width="13.5" height="13.5" fill="black"/>
<path fill-rule="evenodd" clip-rule="evenodd" d="M32.0001 60.0001C48.5687 60.0001 62.0001 46.5687 62.0001 30.0001C62.0001 13.4316 48.5687 0.00012207 32.0001 0.00012207C15.4316 0.00012207 2.00012 13.4316 2.00012 30.0001C2.00012 46.5687 15.4316 60.0001 32.0001 60.0001ZM32.5001 56.0001C46.5834 56.0001 58.0001 44.5834 58.0001 30.5001C58.0001 16.4169 46.5834 5.00012 32.5001 5.00012C18.4169 5.00012 7.00012 16.4169 7.00012 30.5001C7.00012 44.5834 18.4169 56.0001 32.5001 56.0001Z" fill="white"/>
</svg>
