<svg width="46" height="33" viewBox="0 0 46 33" fill="none" xmlns="http://www.w3.org/2000/svg">
<path d="M20.125 0.312524C19.1691 0.312524 18.4 1.08577 18.4 2.0469C18.4 3.00803 19.1691 3.78127 20.125 3.78127H24.2722L25.4509 5.97092L18.4 11.875L15.1441 8.60139C14.2816 7.7342 13.11 7.25002 11.8881 7.25002H4.6C3.32781 7.25002 2.3 8.28342 2.3 9.56253V11.875H9.2C15.5538 11.875 20.7 17.0492 20.7 23.4375C20.7 24.2324 20.6209 25.0057 20.47 25.75H25.53C25.3791 25.0057 25.3 24.2324 25.3 23.4375C25.3 19.6653 27.0969 16.3121 29.8784 14.202L30.9853 16.2688C28.9225 17.967 27.6 20.5469 27.6 23.4375C27.6 28.5467 31.7184 32.6875 36.8 32.6875C41.8816 32.6875 46 28.5467 46 23.4375C46 18.3283 41.8816 14.1875 36.8 14.1875C35.8297 14.1875 34.8953 14.3393 34.0184 14.6211L30.0581 7.25002H34.5C35.7722 7.25002 36.8 6.21663 36.8 4.93752V2.62502C36.8 1.34592 35.7722 0.312524 34.5 0.312524H33.0337C32.4947 0.312524 31.9772 0.500415 31.5603 0.84729L28.1534 3.70178L27.1472 1.82288C26.6441 0.89065 25.6737 0.305298 24.6172 0.305298H20.125V0.312524ZM33.2566 20.4891L35.2834 24.2614C35.7362 25.1069 36.7856 25.4176 37.6194 24.9623C38.4531 24.5071 38.7694 23.452 38.3166 22.6137L36.2897 18.8414C36.455 18.8198 36.6275 18.8125 36.8 18.8125C39.3372 18.8125 41.4 20.8866 41.4 23.4375C41.4 25.9885 39.3372 28.0625 36.8 28.0625C34.2628 28.0625 32.2 25.9885 32.2 23.4375C32.2 22.3174 32.5953 21.2912 33.2566 20.4891ZM13.4622 25.1719C12.7794 26.8701 11.1262 28.0625 9.2 28.0625C6.66281 28.0625 4.6 25.9885 4.6 23.4375C4.6 20.8866 6.66281 18.8125 9.2 18.8125C11.1334 18.8125 12.7866 20.0049 13.4622 21.7032H18.2347C17.4297 17.425 13.6922 14.1875 9.2 14.1875C4.11844 14.1875 0 18.3283 0 23.4375C0 28.5467 4.11844 32.6875 9.2 32.6875C13.6922 32.6875 17.4297 29.45 18.2419 25.1719H13.4622ZM9.2 25.75C9.81 25.75 10.395 25.5064 10.8263 25.0727C11.2577 24.639 11.5 24.0508 11.5 23.4375C11.5 22.8242 11.2577 22.236 10.8263 21.8023C10.395 21.3687 9.81 21.125 9.2 21.125C8.59 21.125 8.00499 21.3687 7.57365 21.8023C7.14232 22.236 6.9 22.8242 6.9 23.4375C6.9 24.0508 7.14232 24.639 7.57365 25.0727C8.00499 25.5064 8.59 25.75 9.2 25.75Z" fill="#383838"/>
</svg>
