<svg width="27" height="32" viewBox="0 0 27 32" fill="none" xmlns="http://www.w3.org/2000/svg">
<path d="M24.1071 4.57717H21.2143V1.44325C21.2143 1.04385 20.8905 0.720032 20.4911 0.720032H18.0804C17.681 0.720032 17.3571 1.04385 17.3571 1.44325V4.57717H9.64286V1.44325C9.64286 1.04385 9.31904 0.720032 8.91964 0.720032H6.50893C6.10953 0.720032 5.78571 1.04385 5.78571 1.44325V4.57717H2.89286C1.29516 4.57717 0 5.87233 0 7.47003V28.6843C0 30.282 1.29516 31.5772 2.89286 31.5772H24.1071C25.7048 31.5772 27 30.282 27 28.6843V7.47003C27 5.87233 25.7048 4.57717 24.1071 4.57717ZM23.7455 28.6843H3.25446C3.15856 28.6843 3.06658 28.6462 2.99877 28.5784C2.93095 28.5106 2.89286 28.4186 2.89286 28.3227V10.3629H24.1071V28.3227C24.1071 28.4186 24.069 28.5106 24.0012 28.5784C23.9334 28.6462 23.8414 28.6843 23.7455 28.6843ZM20.5604 16.5916L11.9838 25.0995C11.7002 25.3808 11.2423 25.379 10.961 25.0954L6.4354 20.5332C6.15413 20.2497 6.15594 19.7917 6.4395 19.5104L7.80873 18.1522C8.09229 17.8709 8.5502 17.8727 8.83147 18.1564L11.4895 20.8359L18.1836 14.1956C18.4672 13.9143 18.9251 13.9161 19.2064 14.1997L20.5646 15.5688C20.8459 15.8524 20.844 16.3103 20.5604 16.5916Z" fill="#5C5B5B"/>
</svg>
