<svg width="30" height="31" viewBox="0 0 30 31" fill="none" xmlns="http://www.w3.org/2000/svg">
<path d="M13.3418 0.758728C14.2559 -0.158732 15.7383 -0.158732 16.6582 0.758728L29.3145 13.462C30.2285 14.3795 30.2285 15.8674 29.3145 16.7908L16.6582 29.4941C15.7441 30.4115 14.2617 30.4115 13.3418 29.4941L0.685547 16.7908C-0.228516 15.8733 -0.228516 14.3854 0.685547 13.462L13.3418 0.758728ZM18.4746 8.81591C18.2051 8.54538 17.8008 8.46893 17.4551 8.61007C17.1094 8.75122 16.875 9.09821 16.875 9.48048V12.7739H13.125C11.0566 12.7739 9.375 14.4618 9.375 16.5379V19.3608C9.375 20.143 10.002 20.7723 10.7812 20.7723C11.5605 20.7723 12.1875 20.143 12.1875 19.3608V16.5379C12.1875 16.0203 12.6094 15.5969 13.125 15.5969H16.875V18.8903C16.875 19.2726 17.1035 19.6137 17.4551 19.7607C17.8066 19.9078 18.2109 19.8254 18.4746 19.5549L23.1621 14.85C23.5254 14.4853 23.5254 13.8855 23.1621 13.5208L18.4746 8.81591Z" fill="#4285F4"/>
</svg>
