<svg width="39" height="39" viewBox="0 0 39 39" fill="none" xmlns="http://www.w3.org/2000/svg">
<path d="M14.625 7.3125C15.5947 7.3125 16.5247 6.92729 17.2104 6.24161C17.896 5.55593 18.2812 4.62595 18.2812 3.65625C18.2812 2.68655 17.896 1.75657 17.2104 1.07089C16.5247 0.385211 15.5947 0 14.625 0C13.6553 0 12.7253 0.385211 12.0396 1.07089C11.354 1.75657 10.9688 2.68655 10.9688 3.65625C10.9688 4.62595 11.354 5.55593 12.0396 6.24161C12.7253 6.92729 13.6553 7.3125 14.625 7.3125ZM9.17871 18.8297C10.1232 18.4717 10.6031 17.4205 10.2451 16.476C9.88711 15.5314 8.83594 15.0516 7.89141 15.4096C3.28301 17.1463 0 21.5947 0 26.8125C0 33.5461 5.45391 39 12.1875 39C16.8492 39 20.8939 36.3873 22.943 32.5482C23.4152 31.657 23.0801 30.5525 22.1889 30.0727C21.2977 29.5928 20.1932 29.9355 19.7133 30.8268C18.2812 33.5156 15.4477 35.3438 12.1875 35.3438C7.47246 35.3438 3.65625 31.5275 3.65625 26.8125C3.65625 23.1639 5.94902 20.0484 9.17871 18.8297ZM19.7895 13.4062L19.6447 12.6674C19.302 10.9688 17.8166 9.75 16.0799 9.75C13.7871 9.75 12.0656 11.8447 12.515 14.0918L14.2746 22.8896C14.7316 25.1672 16.7273 26.8049 19.0582 26.8049H19.4467C19.4771 26.8049 19.5076 26.8049 19.5457 26.8049H26.7135C27.2238 26.8049 27.6732 27.1172 27.8561 27.5971L30.6211 34.9781C31.0781 36.2045 32.434 36.852 33.6756 36.433L37.3318 35.2143C38.6115 34.7877 39.2971 33.409 38.8705 32.1293C38.4439 30.8496 37.0652 30.1641 35.7855 30.5906L34.3611 31.0629L32.4188 25.8832C31.5275 23.5066 29.25 21.9299 26.7135 21.9299H21.4957L20.7645 18.2736H25.5938C26.942 18.2736 28.0312 17.1844 28.0312 15.8361C28.0312 14.4879 26.942 13.3986 25.5938 13.3986H19.7895V13.4062Z" fill="#383838"/>
</svg>
