<svg width="39" height="35" viewBox="0 0 39 35" fill="none" xmlns="http://www.w3.org/2000/svg">
<path d="M10.2984 6.94258L8.31035 12.625H30.6896L28.7016 6.94258C28.3588 5.96758 27.4371 5.3125 26.4012 5.3125H12.5988C11.5629 5.3125 10.6412 5.96758 10.2984 6.94258ZM3.01641 12.9906L5.69766 5.33535C6.72598 2.40273 9.49102 0.4375 12.5988 0.4375H26.4012C29.509 0.4375 32.274 2.40273 33.3023 5.33535L35.9836 12.9906C37.7508 13.7219 39 15.4662 39 17.5V28.4688V32.125C39 33.4732 37.9107 34.5625 36.5625 34.5625H34.125C32.7768 34.5625 31.6875 33.4732 31.6875 32.125V28.4688H7.3125V32.125C7.3125 33.4732 6.22324 34.5625 4.875 34.5625H2.4375C1.08926 34.5625 0 33.4732 0 32.125V28.4688V17.5C0 15.4662 1.24922 13.7219 3.01641 12.9906ZM9.75 19.9375C9.75 19.291 9.49319 18.671 9.03607 18.2139C8.57895 17.7568 7.95897 17.5 7.3125 17.5C6.66603 17.5 6.04605 17.7568 5.58893 18.2139C5.13181 18.671 4.875 19.291 4.875 19.9375C4.875 20.584 5.13181 21.204 5.58893 21.6611C6.04605 22.1182 6.66603 22.375 7.3125 22.375C7.95897 22.375 8.57895 22.1182 9.03607 21.6611C9.49319 21.204 9.75 20.584 9.75 19.9375ZM31.6875 22.375C32.334 22.375 32.954 22.1182 33.4111 21.6611C33.8682 21.204 34.125 20.584 34.125 19.9375C34.125 19.291 33.8682 18.671 33.4111 18.2139C32.954 17.7568 32.334 17.5 31.6875 17.5C31.041 17.5 30.421 17.7568 29.9639 18.2139C29.5068 18.671 29.25 19.291 29.25 19.9375C29.25 20.584 29.5068 21.204 29.9639 21.6611C30.421 22.1182 31.041 22.375 31.6875 22.375Z" fill="#383838"/>
</svg>
