<svg width="21" height="27" viewBox="0 0 21 27" fill="none" xmlns="http://www.w3.org/2000/svg">
<g clip-path="url(#clip0_151_244)">
<path d="M20.5953 4.45604C21.2133 3.73886 21.1149 2.67362 20.3711 2.07772C19.6274 1.48182 18.5227 1.57675 17.9047 2.29393L10.5 10.8633L3.09534 2.29393C2.47737 1.57675 1.37268 1.48182 0.62893 2.07772C-0.11482 2.67362 -0.213257 3.73886 0.404711 4.45604L8.21955 13.5L0.404711 22.5439C-0.213257 23.2611 -0.11482 24.3264 0.62893 24.9223C1.37268 25.5182 2.47737 25.4232 3.09534 24.706L10.5 16.1367L17.9047 24.706C18.5227 25.4232 19.6274 25.5182 20.3711 24.9223C21.1149 24.3264 21.2133 23.2611 20.5953 22.5439L12.7805 13.5L20.5953 4.45604Z" fill="#A4A4A4"/>
</g>
<defs>
<clipPath id="clip0_151_244">
<rect width="21" height="27" fill="white"/>
</clipPath>
</defs>
</svg>
