<svg width="22" height="129" viewBox="0 0 22 129" fill="none" xmlns="http://www.w3.org/2000/svg">
<path d="M10.5 74.1875C8.75952 74.1875 7.09032 74.8789 5.85961 76.1096C4.6289 77.3403 3.9375 79.0095 3.9375 80.75C3.9375 82.4905 4.6289 84.1597 5.85961 85.3904C7.09032 86.6211 8.75952 87.3125 10.5 87.3125C12.2405 87.3125 13.9097 86.6211 15.1404 85.3904C16.3711 84.1597 17.0625 82.4905 17.0625 80.75C17.0625 79.0095 16.3711 77.3403 15.1404 76.1096C13.9097 74.8789 12.2405 74.1875 10.5 74.1875ZM10.5 55.4375C8.75952 55.4375 7.09032 56.1289 5.85961 57.3596C4.6289 58.5903 3.9375 60.2595 3.9375 62C3.9375 63.7405 4.6289 65.4097 5.85961 66.6404C7.09032 67.8711 8.75952 68.5625 10.5 68.5625C12.2405 68.5625 13.9097 67.8711 15.1404 66.6404C16.3711 65.4097 17.0625 63.7405 17.0625 62C17.0625 60.2595 16.3711 58.5903 15.1404 57.3596C13.9097 56.1289 12.2405 55.4375 10.5 55.4375ZM17.0625 43.25C17.0625 41.5095 16.3711 39.8403 15.1404 38.6096C13.9097 37.3789 12.2405 36.6875 10.5 36.6875C8.75952 36.6875 7.09032 37.3789 5.85961 38.6096C4.6289 39.8403 3.9375 41.5095 3.9375 43.25C3.9375 44.9905 4.6289 46.6597 5.85961 47.8904C7.09032 49.1211 8.75952 49.8125 10.5 49.8125C12.2405 49.8125 13.9097 49.1211 15.1404 47.8904C16.3711 46.6597 17.0625 44.9905 17.0625 43.25Z" fill="#9C9C9C"/>
<g clip-path="url(#clip0_367_2)">
<path d="M12.2344 128C14.9062 124.656 21 116.552 21 112C21 106.479 16.5208 102 11 102C5.47917 102 1 106.479 1 112C1 116.552 7.09375 124.656 9.76562 128C10.4062 128.797 11.5938 128.797 12.2344 128ZM11 108.667C11.8841 108.667 12.7319 109.018 13.357 109.643C13.9821 110.268 14.3333 111.116 14.3333 112C14.3333 112.884 13.9821 113.732 13.357 114.357C12.7319 114.982 11.8841 115.333 11 115.333C10.1159 115.333 9.2681 114.982 8.64298 114.357C8.01786 113.732 7.66667 112.884 7.66667 112C7.66667 111.116 8.01786 110.268 8.64298 109.643C9.2681 109.018 10.1159 108.667 11 108.667Z" fill="#CD1919"/>
</g>
<circle cx="11" cy="11" r="10" stroke="#636262" stroke-width="2"/>
<defs>
<clipPath id="clip0_367_2">
<rect width="20" height="26.6667" fill="white" transform="translate(1 102)"/>
</clipPath>
</defs>
</svg>
