<svg width="45" height="37" viewBox="0 0 45 37" fill="none" xmlns="http://www.w3.org/2000/svg">
<path d="M28.125 6.9375C29.0201 6.9375 29.8786 6.57204 30.5115 5.92153C31.1444 5.27101 31.5 4.38872 31.5 3.46875C31.5 2.54878 31.1444 1.66649 30.5115 1.01597C29.8786 0.365457 29.0201 0 28.125 0C27.2299 0 26.3714 0.365457 25.7385 1.01597C25.1056 1.66649 24.75 2.54878 24.75 3.46875C24.75 4.38872 25.1056 5.27101 25.7385 5.92153C26.3714 6.57204 27.2299 6.9375 28.125 6.9375ZM30.0375 11.5625L25.6922 8.03594C24.4758 7.05312 22.7602 7.03867 21.5367 8.01426L15.6937 12.6537C13.5352 14.3736 13.6898 17.7701 15.9961 19.2732L20.25 22.0482V30.0625C20.25 31.3416 21.2555 32.375 22.5 32.375C23.7445 32.375 24.75 31.3416 24.75 30.0625V20.8125C24.75 20.0393 24.3773 19.3166 23.7516 18.8902L20.7422 16.8307L24.982 13.3258L27.8438 15.6816C28.2445 16.0068 28.7367 16.1875 29.25 16.1875H33.75C34.9945 16.1875 36 15.1541 36 13.875C36 12.5959 34.9945 11.5625 33.75 11.5625H30.0375ZM3.9375 27.75C3.9375 26.37 4.47087 25.0466 5.42027 24.0708C6.36967 23.0951 7.65734 22.5469 9 22.5469C10.3427 22.5469 11.6303 23.0951 12.5797 24.0708C13.5291 25.0466 14.0625 26.37 14.0625 27.75C14.0625 29.13 13.5291 30.4534 12.5797 31.4292C11.6303 32.4049 10.3427 32.9531 9 32.9531C7.65734 32.9531 6.36967 32.4049 5.42027 31.4292C4.47087 30.4534 3.9375 29.13 3.9375 27.75ZM18 27.75C18 25.2967 17.0518 22.944 15.364 21.2093C13.6761 19.4746 11.3869 18.5 9 18.5C6.61305 18.5 4.32387 19.4746 2.63604 21.2093C0.948212 22.944 0 25.2967 0 27.75C0 30.2033 0.948212 32.556 2.63604 34.2907C4.32387 36.0254 6.61305 37 9 37C11.3869 37 13.6761 36.0254 15.364 34.2907C17.0518 32.556 18 30.2033 18 27.75ZM30.9375 27.75C30.9375 26.37 31.4709 25.0466 32.4203 24.0708C33.3697 23.0951 34.6573 22.5469 36 22.5469C37.3427 22.5469 38.6303 23.0951 39.5797 24.0708C40.5291 25.0466 41.0625 26.37 41.0625 27.75C41.0625 29.13 40.5291 30.4534 39.5797 31.4292C38.6303 32.4049 37.3427 32.9531 36 32.9531C34.6573 32.9531 33.3697 32.4049 32.4203 31.4292C31.4709 30.4534 30.9375 29.13 30.9375 27.75ZM45 27.75C45 25.2967 44.0518 22.944 42.364 21.2093C40.6761 19.4746 38.3869 18.5 36 18.5C33.6131 18.5 31.3239 19.4746 29.636 21.2093C27.9482 22.944 27 25.2967 27 27.75C27 30.2033 27.9482 32.556 29.636 34.2907C31.3239 36.0254 33.6131 37 36 37C38.3869 37 40.6761 36.0254 42.364 34.2907C44.0518 32.556 45 30.2033 45 27.75Z" fill="#383838"/>
</svg>
