<svg width="27" height="29" viewBox="0 0 27 29" fill="none" xmlns="http://www.w3.org/2000/svg">
<path d="M21.9375 11.4916C21.9375 14.0111 21.1518 16.3385 19.8281 18.2267L26.5043 25.1814C27.1635 25.8675 27.1635 26.9818 26.5043 27.668C25.8451 28.3541 24.7746 28.3541 24.1154 27.668L17.4393 20.7133C15.6252 22.0965 13.3893 22.9089 10.9688 22.9089C4.90957 22.9089 0 17.7986 0 11.4916C0 5.18468 4.90957 0.0743484 10.9688 0.0743484C17.0279 0.0743484 21.9375 5.18468 21.9375 11.4916ZM10.9688 19.3959C11.966 19.3959 12.9534 19.1915 13.8748 18.7942C14.7961 18.397 15.6332 17.8148 16.3383 17.0808C17.0435 16.3468 17.6028 15.4755 17.9845 14.5165C18.3661 13.5575 18.5625 12.5296 18.5625 11.4916C18.5625 10.4536 18.3661 9.42579 17.9845 8.4668C17.6028 7.50781 17.0435 6.63645 16.3383 5.90247C15.6332 5.16849 14.7961 4.58626 13.8748 4.18904C12.9534 3.79181 11.966 3.58736 10.9688 3.58736C9.97152 3.58736 8.98406 3.79181 8.06275 4.18904C7.14143 4.58626 6.3043 5.16849 5.59916 5.90247C4.89401 6.63645 4.33466 7.50781 3.95304 8.4668C3.57142 9.42579 3.375 10.4536 3.375 11.4916C3.375 12.5296 3.57142 13.5575 3.95304 14.5165C4.33466 15.4755 4.89401 16.3468 5.59916 17.0808C6.3043 17.8148 7.14143 18.397 8.06275 18.7942C8.98406 19.1915 9.97152 19.3959 10.9688 19.3959Z" fill="#A4A4A4"/>
</svg>
