<svg width="180" height="180" viewBox="0 0 180 180" fill="none" xmlns="http://www.w3.org/2000/svg">
<g clip-path="url(#clip0_390_4)">
<circle cx="90" cy="90" r="90" fill="black" fill-opacity="0.08"/>
<path d="M135.948 112.628L135.943 112.62L101.268 52.0482C101.268 52.0472 101.267 52.0462 101.267 52.0453C98.886 47.8707 94.562 45.193 89.741 45.2169C84.9066 45.2409 80.6423 47.9724 78.2923 52.145L78.2865 52.1555L44.2215 113.066C44.2206 113.068 44.2197 113.069 44.2188 113.071C41.7874 117.395 41.7414 122.759 44.0452 127.125C46.3618 131.516 50.8084 134.411 55.8124 134.386L124.562 134.045C129.566 134.021 133.983 131.082 136.255 126.668C138.524 122.263 138.385 116.907 135.948 112.628Z" fill="#4285F4"/>
<path d="M135.948 112.628L135.943 112.62L101.268 52.0482C101.268 52.0472 101.267 52.0462 101.267 52.0453C98.886 47.8707 94.562 45.193 89.741 45.2169C84.9066 45.2409 80.6423 47.9724 78.2923 52.145L78.2865 52.1555L44.2215 113.066C44.2206 113.068 44.2197 113.069 44.2188 113.071C41.7874 117.395 41.7414 122.759 44.0452 127.125C46.3618 131.516 50.8084 134.411 55.8124 134.386L124.562 134.045C129.566 134.021 133.983 131.082 136.255 126.668C138.524 122.263 138.385 116.907 135.948 112.628Z" stroke="white" stroke-width="8"/>
<path d="M135.948 112.628L135.943 112.62L101.268 52.0482C101.268 52.0472 101.267 52.0462 101.267 52.0453C98.886 47.8707 94.562 45.193 89.741 45.2169C84.9066 45.2409 80.6423 47.9724 78.2923 52.145L78.2865 52.1555L44.2215 113.066C44.2206 113.068 44.2197 113.069 44.2188 113.071C41.7874 117.395 41.7414 122.759 44.0452 127.125C46.3618 131.516 50.8084 134.411 55.8124 134.386L124.562 134.045C129.566 134.021 133.983 131.082 136.255 126.668C138.524 122.263 138.385 116.907 135.948 112.628Z" stroke="black" stroke-opacity="0.15" stroke-width="8"/>
</g>
<defs>
<clipPath id="clip0_390_4">
<rect width="180" height="180" fill="white" transform="matrix(0 -1 1 0 0 180)"/>
</clipPath>
</defs>
</svg>
