<svg width="772" height="570" viewBox="0 0 772 570" fill="none" xmlns="http://www.w3.org/2000/svg">
<path d="M328.5 405V412.5L248 409L241.5 405L232 395L229.5 378L234.5 346L245 318L248 310H254.5L264 312.5L258 333.5H254.5L248 336.5L241.5 368V380.5L245 389.5L254.5 395H261L267.5 389.5L271.5 368L278 329.5H295.5V342.5L283.5 349.5V367L290 373V387.5V388.5V397" stroke="black" stroke-opacity="0.9" stroke-width="2"/>
<path d="M291 388V396H328.5V405.5" stroke="black" stroke-opacity="0.9" stroke-width="2"/>
<path d="M425.5 414L441.5 420.5L455 430" stroke="black" stroke-opacity="0.9" stroke-width="2"/>
<path d="M463 435L486.5 452" stroke="black" stroke-opacity="0.9" stroke-width="2"/>
<path d="M495.5 457.5L510.5 479L506.5 481.5" stroke="black" stroke-opacity="0.9" stroke-width="2"/>
<path d="M426 415L441.5 421.5L454 430.5L452 433L438.5 424.5L424.5 418L426 415Z" fill="#C6EAB5"/>
<path d="M463 436L473.5 443.5L485.5 452.5L483.5 455.5L460.5 438.5L463 436Z" fill="#C6EAB5"/>
<path d="M495 458.5L509.5 479L506.5 480.5L492 460.5L495 458.5Z" fill="#C6EAB5"/>
<path d="M343.5 212L377 247.5L397 262.5L460.5 306L484 314.5L490.5 318.5L524.5 333L567 351L603.5 375.5L613 383L627.5 403.5L659.5 510V521.5L618 530.5L600.5 476.5L571 427.5L549 409.5L517 376.5L479 356.5L458 347.5L426.5 334L394.5 327.5L349 319L310 312L306 311.5V309H310V303.5V299.5L306.5 291L300.5 284L288.5 275L343.5 212Z" fill="#D5DBCD"/>
<path d="M660 321L691.5 359.5L704.5 398.5L698 414L720 490.5L711 494L693 480.5L687 458.5H679.5L671 429L663.5 419L649.5 374L640 364.5L626.5 360H613L660 321Z" fill="#D9D9D9"/>
<path d="M271 411L329.5 413.5L332.5 413L336.5 414V444H305H271V417L270 413.5L271 411Z" fill="#D9D9D9"/>
<path d="M700.91 44L771.491 178.25L705.991 211.5L630.329 178.25L628.41 80.5L700.91 44Z" fill="#C6EAB5"/>
<rect x="145.685" y="0.925725" width="38.3238" height="40.0548" transform="rotate(31.1317 145.685 0.925725)" fill="#807E7F" stroke="black"/>
<rect x="230.754" y="224.698" width="32.7684" height="73.4496" transform="rotate(35.8873 230.754 224.698)" fill="#807E7F" stroke="black"/>
<rect x="162.954" y="328.698" width="30.6016" height="68.6725" transform="rotate(35.8873 162.954 328.698)" fill="#807E7F" stroke="black"/>
<rect x="198.267" y="351.561" width="30.6016" height="68.6725" transform="rotate(34.8198 198.267 351.561)" fill="#807E7F" stroke="black"/>
<rect x="431.24" y="351.402" width="24.359" height="54.9095" transform="rotate(26.3202 431.24 351.402)" fill="#807E7F" stroke="black"/>
<rect x="476.247" y="369.683" width="24.359" height="54.9095" transform="rotate(30.1308 476.247 369.683)" fill="#807E7F" stroke="black"/>
<rect x="520.253" y="401.031" width="24.359" height="54.9095" transform="rotate(42.0875 520.253 401.031)" fill="#807E7F" stroke="black"/>
<rect x="555.83" y="440.691" width="24.359" height="54.9095" transform="rotate(57.168 555.83 440.691)" fill="#807E7F" stroke="black"/>
<rect x="428.269" y="469.459" width="26.0671" height="58.6753" transform="rotate(-43.4999 428.269 469.459)" fill="#807E7F" stroke="black"/>
<rect x="400.128" y="424.666" width="28.4999" height="53.0209" transform="rotate(92.3096 400.128 424.666)" fill="#807E7F" stroke="black"/>
<rect x="659.705" y="124.696" width="33.0112" height="54.9095" transform="rotate(-49.205 659.705 124.696)" fill="#807E7F" stroke="black"/>
<path d="M380.421 346.131L400.669 359.39L398.814 381.556L376.617 391.606L359.534 378.293L361.392 356.082L380.421 346.131Z" fill="#4762A9" stroke="black"/>
<path d="M346 388V367H327H313L308 356.5L313 346H327V330H295.5V342.5L284 349.5V367L290.5 373V388H346Z" fill="#807E7F" stroke="black"/>
<path d="M377 246.5L343.5 210.5L280.5 275.5C276.667 281.667 269 294.5 269 296.5L287.5 303.5V308L257.5 300.5L317 200L320.5 194.5L327.5 191.5H335.5L343.5 194.5L383 241.5L377 246.5Z" fill="#C6EAB5"/>
<path d="M305.5 312V308H309.5V300.5L305.5 291L300 284L287.5 275.5L343.5 210.5M343.5 210.5L377 246.5L383 241.5L343.5 194.5L335.5 191.5H327.5L320.5 194.5L317 200L257.5 300.5L287.5 308V303.5L269 296.5C269 294.5 276.667 281.667 280.5 275.5L343.5 210.5Z" stroke="black" stroke-opacity="0.9" stroke-width="2"/>
<path d="M485 309L395 252.5L392 257.5L462 306L483.5 313.5L485 309Z" fill="#C6EAB5" stroke="black" stroke-opacity="0.9" stroke-width="2"/>
<path d="M491.5 318L493 313L539 330L572.5 346L608 371L603.5 374.5L567.5 350L491.5 318Z" fill="#C6EAB5" stroke="black" stroke-opacity="0.9" stroke-width="2"/>
<path d="M631 395L619.5 378.5L614 383L628 403L660 508L664.5 505.5L631 395Z" fill="#C6EAB5" stroke="black" stroke-opacity="0.9" stroke-width="2"/>
<path d="M623 368L627 361L639.5 365L648.5 374.5L662 418H651L634.5 379L623 368Z" fill="#C6EAB5" stroke="black" stroke-opacity="0.9" stroke-width="2"/>
<ellipse cx="689" cy="515.5" rx="16" ry="16.5" fill="#C6EAB5"/>
<path d="M704 515.5C704 524.09 697.255 531 689 531C680.745 531 674 524.09 674 515.5C674 506.91 680.745 500 689 500C697.255 500 704 506.91 704 515.5Z" stroke="black" stroke-opacity="0.9" stroke-width="2"/>
<path d="M175.5 25.5L324.5 116.5L345 134L365 144L369.5 164.5L398 208L427.5 238.5L595.5 134H606.5L644.5 139M644.5 144L606.5 139L595.5 144L435.5 247L600 353.5L613 359L660 319.5L692 359L705.5 398L699 413.5L721 491L711 495L692 480.5L686.5 459.5H679L670 430L657.5 433.5L670 475.5L699 491L711 506L715.5 520L711 532.5L705.5 539L620.5 554L606.5 547V558.5L562 568.5L542 506L589 495L579 466.5L571 450.5L564.5 455" stroke="black" stroke-opacity="0.9" stroke-width="2"/>
<path d="M569.5 427.5L599.5 477L617.5 531.5L659.5 522M548 409.5L516 377L501.5 368.5L475.5 355.5M457.5 348.5L425.5 334.5L390.5 327.5L367 323.5M349 319.5L326.5 315.5L304.5 311.5" stroke="black" stroke-opacity="0.9" stroke-width="2"/>
<path d="M161 49L304 135.5L311.5 150L317.5 170.5V183.5L311.5 194L233 319L227 338.5L223 342.5L216 338.5L70.5 229.5L7 305L110 387L158 315L218.5 353.5L223 358.5V367V395.5L227 401.5L233 408L242.5 415L249.5 418H270V445H337V415H385L393 418L444.5 440L453 445L474 467L485.5 477.5L498 497L516.5 487" stroke="black" stroke-opacity="0.9" stroke-width="2"/>
<path d="M507 482.5L491 460.5L496 456.5M487.5 451.5L483.5 456.5L459.5 438.5L463.5 434M456 429.5L452 434L437.5 425L423 418.5L426 413M417.5 409.5L415 416L400.5 413L380 406.5V401.5M371.5 406.5V401.5" stroke="black" stroke-opacity="0.9" stroke-width="2"/>
<path d="M371.5 406.5H360L348.5 408L338 409.5V405.5" stroke="black" stroke-opacity="0.9" stroke-width="2"/>
<path d="M418 410.5L378.5 396.5L338 401.5V406.5" stroke="black" stroke-opacity="0.9" stroke-width="2"/>
<path d="M70.5 230.5L170 305L166 314H157.5L109.5 386L7.5 305L70.5 230.5Z" fill="#C6EAB5"/>
<path d="M248.5 311H254.5L263 313L257.5 332.5H254L247 336L240.5 368V381L244.5 390.5L254.5 396L327.5 397V411.5L248 408L242 404.5L233 394.5L230.5 378.5L235.5 346L248.5 311Z" fill="#C6EAB5"/>
<path d="M268.5 390L274 359L276 347.5L279 330.5H294.5V342L282.5 349V367L277.5 362L289 373.5V396.5L261 396L268.5 390Z" fill="#C6EAB5"/>
<path d="M366 399L364 402L362.5 405.5L339 408.5V402.5L366 399Z" fill="#C6EAB5"/>
<path d="M384 399.5L397.5 404L416 411L414.5 415L400.5 412L387.5 408L386.5 404L384 399.5Z" fill="#C6EAB5"/>
<path d="M591 495.5L601.5 520L605.5 545.5V558L562.5 567.5L543 506.5L591 495.5Z" fill="#C6EAB5"/>
<path d="M570.5 164L596.5 172.5L574.5 187.5L627.5 218L638 240.5L692.5 235.5L715 253.5L613 310L596.5 284L459.24 235.5L570.5 164Z" fill="#2B80B7" fill-opacity="0.6"/>
<path d="M521.5 140L513.696 161.25L494.5 162L470 187.5V162L467 147L521.5 140Z" fill="#80B1D1"/>
<circle cx="167.5" cy="36.5" r="12" fill="#FFB800" stroke="black"/>
<circle cx="343.5" cy="155.5" r="12" fill="#FF0000" stroke="black"/>
<circle cx="238.5" cy="291.5" r="12" fill="#FFB800" stroke="black"/>
<circle cx="417.5" cy="248.5" r="12" fill="#FF0000" stroke="black"/>
<circle cx="79.5" cy="301.5" r="12" fill="#FE4602" stroke="black"/>
<path d="M172.862 328.5C172.862 335.127 167.49 340.5 160.862 340.5C154.235 340.5 148.862 335.127 148.862 328.5C148.862 321.873 154.235 316.5 160.862 316.5C167.49 316.5 172.862 321.873 172.862 328.5Z" fill="#FFB800" stroke="black"/>
<path d="M212.334 352C212.334 358.627 206.962 364 200.334 364C193.707 364 188.334 358.627 188.334 352C188.334 345.373 193.707 340 200.334 340C206.962 340 212.334 345.373 212.334 352Z" fill="#0EB9A9" stroke="black"/>
<circle cx="258.5" cy="351.5" r="12" fill="#127909" stroke="black"/>
<path d="M234.395 405.5C234.395 412.127 229.022 417.5 222.395 417.5C215.767 417.5 210.395 412.127 210.395 405.5C210.395 398.873 215.767 393.5 222.395 393.5C229.022 393.5 234.395 398.873 234.395 405.5Z" fill="#127909" stroke="black"/>
<path d="M335.5 366.5C335.5 373.127 330.127 378.5 323.5 378.5C316.873 378.5 311.5 373.127 311.5 366.5C311.5 359.873 316.873 354.5 323.5 354.5C330.127 354.5 335.5 359.873 335.5 366.5Z" fill="#F90573" stroke="black"/>
<path d="M389.039 362.5C389.039 369.127 383.667 374.5 377.039 374.5C370.412 374.5 365.039 369.127 365.039 362.5C365.039 355.873 370.412 350.5 377.039 350.5C383.667 350.5 389.039 355.873 389.039 362.5Z" fill="#8A04FF" stroke="black"/>
<circle cx="425.5" cy="367.5" r="12" fill="#FFB800" stroke="black"/>
<circle cx="472.5" cy="381.5" r="12" fill="#FFB800" stroke="black"/>
<circle cx="510.5" cy="411.5" r="12" fill="#FFB800" stroke="black"/>
<circle cx="540.5" cy="448.5" r="12" fill="#FFB800" stroke="black"/>
<path d="M674.5 131.5C674.5 138.127 669.127 143.5 662.5 143.5C655.873 143.5 650.5 138.127 650.5 131.5C650.5 124.873 655.873 119.5 662.5 119.5C669.127 119.5 674.5 124.873 674.5 131.5Z" fill="#05D5BC" stroke="black"/>
<path d="M680.5 387.5C680.5 394.127 675.127 399.5 668.5 399.5C661.873 399.5 656.5 394.127 656.5 387.5C656.5 380.873 661.873 375.5 668.5 375.5C675.127 375.5 680.5 380.873 680.5 387.5Z" fill="#FE4602" stroke="black"/>
<circle cx="576.5" cy="529.5" r="12" fill="#FE4602" stroke="black"/>
<circle cx="308.5" cy="426.5" r="12" fill="#127909" stroke="black"/>
<path d="M386.772 408C386.772 414.627 381.399 420 374.772 420C368.144 420 362.772 414.627 362.772 408C362.772 401.373 368.144 396 374.772 396C381.399 396 386.772 401.373 386.772 408Z" fill="#05D5BC" stroke="black"/>
<path d="M483.5 455C483.5 461.627 478.127 467 471.5 467C464.873 467 459.5 461.627 459.5 455C459.5 448.373 464.873 443 471.5 443C478.127 443 483.5 448.373 483.5 455Z" fill="#0EB9A9" stroke="black"/>
<circle cx="358.5" cy="307.5" r="12" fill="#FF0000" stroke="black"/>
<circle cx="470.5" cy="337.5" r="12" fill="#FF0000" stroke="black"/>
<circle cx="561.5" cy="406.5" r="12" fill="#FF0000" stroke="black"/>
<path d="M417.933 253.119C417.297 253.119 416.73 253.01 416.233 252.791C415.739 252.57 415.348 252.266 415.061 251.879C414.777 251.49 414.631 251.041 414.622 250.533H416.48C416.491 250.746 416.561 250.933 416.689 251.095C416.82 251.254 416.993 251.378 417.209 251.466C417.425 251.554 417.668 251.598 417.938 251.598C418.219 251.598 418.467 251.548 418.683 251.449C418.899 251.349 419.068 251.212 419.19 251.036C419.313 250.859 419.374 250.656 419.374 250.426C419.374 250.193 419.308 249.987 419.178 249.808C419.05 249.626 418.865 249.484 418.624 249.382C418.385 249.28 418.101 249.229 417.771 249.229H416.957V247.874H417.771C418.05 247.874 418.295 247.825 418.509 247.729C418.724 247.632 418.892 247.499 419.011 247.328C419.131 247.155 419.19 246.953 419.19 246.723C419.19 246.504 419.138 246.312 419.033 246.148C418.93 245.98 418.786 245.849 418.598 245.756C418.413 245.662 418.197 245.615 417.95 245.615C417.7 245.615 417.472 245.661 417.264 245.751C417.057 245.839 416.891 245.966 416.766 246.131C416.641 246.295 416.574 246.489 416.565 246.71H414.797C414.805 246.207 414.949 245.764 415.227 245.381C415.506 244.997 415.881 244.697 416.352 244.482C416.827 244.263 417.362 244.153 417.959 244.153C418.561 244.153 419.088 244.263 419.54 244.482C419.991 244.7 420.342 244.996 420.592 245.368C420.845 245.737 420.97 246.152 420.967 246.612C420.97 247.101 420.818 247.509 420.511 247.835C420.207 248.162 419.811 248.369 419.322 248.457V248.526C419.964 248.608 420.453 248.831 420.788 249.195C421.126 249.555 421.294 250.007 421.291 250.55C421.294 251.047 421.151 251.489 420.861 251.875C420.574 252.261 420.178 252.565 419.672 252.787C419.166 253.009 418.587 253.119 417.933 253.119Z" fill="black"/>
<path d="M658.575 134.466V133.013L662.219 127.273H663.472V129.284H662.73L660.433 132.919V132.987H665.611V134.466H658.575ZM662.764 136V134.023L662.798 133.379V127.273H664.528V136H662.764Z" fill="black"/>
<path d="M340.707 160V158.67L343.814 155.794C344.078 155.538 344.3 155.308 344.479 155.104C344.661 154.899 344.798 154.699 344.892 154.503C344.986 154.304 345.033 154.089 345.033 153.859C345.033 153.604 344.974 153.384 344.858 153.199C344.741 153.011 344.582 152.868 344.381 152.768C344.179 152.666 343.95 152.615 343.695 152.615C343.428 152.615 343.195 152.669 342.996 152.777C342.797 152.885 342.643 153.04 342.536 153.241C342.428 153.443 342.374 153.683 342.374 153.962H340.622C340.622 153.391 340.751 152.895 341.01 152.474C341.268 152.054 341.631 151.729 342.097 151.499C342.563 151.268 343.099 151.153 343.707 151.153C344.332 151.153 344.876 151.264 345.339 151.486C345.805 151.705 346.168 152.009 346.426 152.398C346.685 152.787 346.814 153.233 346.814 153.736C346.814 154.065 346.749 154.391 346.618 154.712C346.49 155.033 346.261 155.389 345.932 155.781C345.602 156.17 345.138 156.638 344.538 157.183L343.264 158.432V158.491H346.929V160H340.707Z" fill="black"/>
<path d="M168.504 32.2727V41H166.659V34.0241H166.608L164.609 35.277V33.6406L166.77 32.2727H168.504Z" fill="black"/>
<path d="M667.895 392.119C667.293 392.119 666.756 392.009 666.284 391.787C665.815 391.565 665.443 391.26 665.168 390.871C664.892 390.482 664.749 390.036 664.737 389.533H666.527C666.547 389.871 666.689 390.145 666.953 390.355C667.217 390.565 667.531 390.67 667.895 390.67C668.185 390.67 668.44 390.607 668.662 390.479C668.886 390.348 669.061 390.168 669.186 389.938C669.314 389.705 669.378 389.437 669.378 389.136C669.378 388.83 669.313 388.56 669.182 388.327C669.054 388.094 668.876 387.912 668.649 387.781C668.422 387.651 668.162 387.584 667.869 387.581C667.614 387.581 667.365 387.634 667.124 387.739C666.885 387.844 666.699 387.987 666.565 388.169L664.925 387.875L665.338 383.273H670.673V384.781H666.859L666.634 386.967H666.685C666.838 386.751 667.07 386.572 667.379 386.43C667.689 386.288 668.036 386.217 668.419 386.217C668.945 386.217 669.413 386.341 669.825 386.588C670.237 386.835 670.562 387.175 670.801 387.607C671.04 388.036 671.158 388.53 671.155 389.089C671.158 389.678 671.021 390.2 670.746 390.658C670.473 391.112 670.091 391.47 669.599 391.732C669.111 391.99 668.543 392.119 667.895 392.119Z" fill="black"/>
<path d="M576.057 534.119C575.608 534.116 575.175 534.041 574.757 533.893C574.342 533.746 573.97 533.506 573.641 533.173C573.311 532.841 573.05 532.401 572.857 531.852C572.666 531.304 572.571 530.631 572.571 529.832C572.574 529.099 572.658 528.445 572.822 527.868C572.99 527.288 573.229 526.797 573.538 526.393C573.851 525.99 574.224 525.683 574.659 525.473C575.094 525.26 575.581 525.153 576.121 525.153C576.703 525.153 577.217 525.267 577.663 525.494C578.109 525.719 578.467 526.024 578.737 526.411C579.01 526.797 579.175 527.23 579.232 527.71H577.412C577.341 527.406 577.192 527.168 576.964 526.994C576.737 526.821 576.456 526.734 576.121 526.734C575.553 526.734 575.121 526.982 574.825 527.476C574.533 527.97 574.384 528.642 574.378 529.491H574.438C574.568 529.233 574.744 529.013 574.966 528.831C575.19 528.646 575.445 528.506 575.729 528.409C576.016 528.31 576.318 528.26 576.636 528.26C577.153 528.26 577.614 528.382 578.017 528.626C578.42 528.868 578.739 529.2 578.972 529.624C579.205 530.047 579.321 530.531 579.321 531.077C579.321 531.668 579.183 532.193 578.908 532.653C578.635 533.114 578.253 533.474 577.761 533.736C577.273 533.994 576.705 534.122 576.057 534.119ZM576.048 532.67C576.332 532.67 576.587 532.602 576.811 532.466C577.036 532.33 577.212 532.145 577.339 531.912C577.467 531.679 577.531 531.418 577.531 531.128C577.531 530.838 577.467 530.578 577.339 530.348C577.214 530.118 577.041 529.935 576.82 529.798C576.598 529.662 576.345 529.594 576.061 529.594C575.848 529.594 575.651 529.634 575.469 529.713C575.29 529.793 575.132 529.903 574.996 530.045C574.862 530.187 574.757 530.352 574.68 530.54C574.604 530.724 574.565 530.922 574.565 531.132C574.565 531.413 574.629 531.67 574.757 531.903C574.888 532.136 575.064 532.322 575.286 532.462C575.51 532.601 575.764 532.67 576.048 532.67Z" fill="black"/>
<path d="M538.053 453L541.67 445.841V445.781H537.456V444.273H543.58V445.803L539.957 453H538.053Z" fill="black"/>
<path d="M510.963 416.119C510.307 416.119 509.723 416.013 509.212 415.8C508.703 415.584 508.304 415.29 508.014 414.918C507.724 414.545 507.58 414.124 507.58 413.652C507.58 413.288 507.662 412.955 507.827 412.651C507.994 412.344 508.222 412.089 508.509 411.888C508.795 411.683 509.116 411.553 509.472 411.496V411.436C509.006 411.342 508.628 411.116 508.338 410.759C508.048 410.398 507.903 409.979 507.903 409.501C507.903 409.05 508.036 408.648 508.3 408.295C508.564 407.94 508.926 407.662 509.386 407.46C509.849 407.256 510.375 407.153 510.963 407.153C511.551 407.153 512.075 407.256 512.536 407.46C512.999 407.665 513.362 407.945 513.626 408.3C513.891 408.652 514.024 409.053 514.027 409.501C514.024 409.982 513.876 410.401 513.584 410.759C513.291 411.116 512.916 411.342 512.459 411.436V411.496C512.808 411.553 513.125 411.683 513.409 411.888C513.696 412.089 513.923 412.344 514.091 412.651C514.261 412.955 514.348 413.288 514.351 413.652C514.348 414.124 514.202 414.545 513.912 414.918C513.622 415.29 513.222 415.584 512.71 415.8C512.202 416.013 511.619 416.119 510.963 416.119ZM510.963 414.764C511.256 414.764 511.511 414.712 511.73 414.607C511.949 414.499 512.119 414.351 512.241 414.163C512.366 413.973 512.429 413.754 512.429 413.507C512.429 413.254 512.365 413.031 512.237 412.838C512.109 412.642 511.936 412.489 511.717 412.378C511.499 412.264 511.247 412.207 510.963 412.207C510.682 412.207 510.43 412.264 510.209 412.378C509.987 412.489 509.813 412.642 509.685 412.838C509.56 413.031 509.497 413.254 509.497 413.507C509.497 413.754 509.558 413.973 509.68 414.163C509.803 414.351 509.974 414.499 510.196 414.607C510.418 414.712 510.673 414.764 510.963 414.764ZM510.963 410.865C511.207 410.865 511.425 410.815 511.615 410.716C511.805 410.616 511.955 410.479 512.062 410.303C512.17 410.126 512.224 409.923 512.224 409.693C512.224 409.466 512.17 409.267 512.062 409.097C511.955 408.923 511.807 408.788 511.619 408.692C511.432 408.592 511.213 408.543 510.963 408.543C510.716 408.543 510.497 408.592 510.307 408.692C510.116 408.788 509.967 408.923 509.859 409.097C509.754 409.267 509.702 409.466 509.702 409.693C509.702 409.923 509.756 410.126 509.864 410.303C509.972 410.479 510.121 410.616 510.311 410.716C510.501 410.815 510.719 410.865 510.963 410.865Z" fill="black"/>
<path d="M472.865 377.153C473.314 377.153 473.746 377.229 474.161 377.379C474.578 377.53 474.95 377.77 475.277 378.099C475.607 378.429 475.866 378.866 476.057 379.412C476.25 379.955 476.348 380.621 476.351 381.411C476.351 382.152 476.267 382.814 476.099 383.396C475.935 383.976 475.697 384.469 475.388 384.875C475.078 385.281 474.705 385.591 474.267 385.804C473.83 386.014 473.341 386.119 472.801 386.119C472.219 386.119 471.705 386.007 471.259 385.783C470.813 385.555 470.453 385.247 470.18 384.858C469.911 384.466 469.747 384.026 469.69 383.537H471.51C471.581 383.855 471.73 384.102 471.957 384.278C472.185 384.452 472.466 384.538 472.801 384.538C473.369 384.538 473.801 384.291 474.097 383.797C474.392 383.3 474.541 382.619 474.544 381.756H474.484C474.354 382.011 474.178 382.232 473.956 382.416C473.734 382.598 473.48 382.739 473.193 382.838C472.909 382.938 472.607 382.987 472.286 382.987C471.771 382.987 471.312 382.866 470.909 382.625C470.506 382.384 470.188 382.051 469.955 381.628C469.722 381.205 469.605 380.722 469.605 380.179C469.602 379.594 469.737 379.072 470.01 378.615C470.283 378.158 470.663 377.8 471.152 377.541C471.643 377.28 472.214 377.151 472.865 377.153ZM472.878 378.602C472.591 378.602 472.335 378.67 472.111 378.807C471.889 378.943 471.713 379.126 471.582 379.357C471.455 379.587 471.392 379.844 471.395 380.128C471.395 380.415 471.457 380.673 471.582 380.903C471.71 381.131 471.884 381.312 472.102 381.449C472.324 381.582 472.577 381.649 472.861 381.649C473.074 381.649 473.271 381.609 473.453 381.53C473.635 381.45 473.793 381.341 473.926 381.202C474.063 381.06 474.169 380.896 474.246 380.712C474.322 380.527 474.361 380.331 474.361 380.124C474.358 379.848 474.293 379.595 474.165 379.365C474.037 379.135 473.861 378.95 473.636 378.811C473.412 378.672 473.159 378.602 472.878 378.602Z" fill="black"/>
<path d="M423.504 363.273V372H421.659V365.024H421.608L419.609 366.277V364.641L421.77 363.273H423.504ZM429 372.192C428.267 372.189 427.637 372.009 427.108 371.651C426.583 371.293 426.178 370.774 425.894 370.095C425.613 369.416 425.473 368.599 425.476 367.645C425.476 366.693 425.617 365.882 425.898 365.212C426.182 364.541 426.587 364.031 427.113 363.682C427.641 363.33 428.27 363.153 429 363.153C429.73 363.153 430.358 363.33 430.884 363.682C431.412 364.034 431.819 364.545 432.103 365.216C432.387 365.884 432.527 366.693 432.525 367.645C432.525 368.602 432.382 369.42 432.098 370.099C431.817 370.778 431.414 371.297 430.888 371.655C430.363 372.013 429.733 372.192 429 372.192ZM429 370.662C429.5 370.662 429.9 370.411 430.198 369.908C430.496 369.405 430.644 368.651 430.641 367.645C430.641 366.983 430.573 366.432 430.436 365.991C430.303 365.551 430.113 365.22 429.865 364.999C429.621 364.777 429.333 364.666 429 364.666C428.503 364.666 428.105 364.915 427.807 365.412C427.509 365.909 427.358 366.653 427.355 367.645C427.355 368.315 427.422 368.875 427.556 369.324C427.692 369.77 427.884 370.105 428.131 370.33C428.378 370.551 428.668 370.662 429 370.662Z" fill="black"/>
<path d="M463.707 342V340.67L466.814 337.794C467.078 337.538 467.3 337.308 467.479 337.104C467.661 336.899 467.798 336.699 467.892 336.503C467.986 336.304 468.033 336.089 468.033 335.859C468.033 335.604 467.974 335.384 467.858 335.199C467.741 335.011 467.582 334.868 467.381 334.768C467.179 334.666 466.95 334.615 466.695 334.615C466.428 334.615 466.195 334.669 465.996 334.777C465.797 334.885 465.643 335.04 465.536 335.241C465.428 335.443 465.374 335.683 465.374 335.962H463.622C463.622 335.391 463.751 334.895 464.01 334.474C464.268 334.054 464.631 333.729 465.097 333.499C465.563 333.268 466.099 333.153 466.707 333.153C467.332 333.153 467.876 333.264 468.339 333.486C468.805 333.705 469.168 334.009 469.426 334.398C469.685 334.787 469.814 335.233 469.814 335.736C469.814 336.065 469.749 336.391 469.618 336.712C469.49 337.033 469.261 337.389 468.932 337.781C468.602 338.17 468.138 338.638 467.538 339.183L466.264 340.432V340.491H469.929V342H463.707ZM474.492 342.119C473.855 342.119 473.289 342.01 472.792 341.791C472.297 341.57 471.907 341.266 471.62 340.879C471.336 340.49 471.189 340.041 471.181 339.533H473.039C473.05 339.746 473.12 339.933 473.248 340.095C473.378 340.254 473.551 340.378 473.767 340.466C473.983 340.554 474.226 340.598 474.496 340.598C474.777 340.598 475.026 340.548 475.242 340.449C475.458 340.349 475.627 340.212 475.749 340.036C475.871 339.859 475.932 339.656 475.932 339.426C475.932 339.193 475.867 338.987 475.736 338.808C475.608 338.626 475.424 338.484 475.182 338.382C474.944 338.28 474.659 338.229 474.33 338.229H473.516V336.874H474.33C474.608 336.874 474.854 336.825 475.067 336.729C475.283 336.632 475.451 336.499 475.57 336.328C475.689 336.155 475.749 335.953 475.749 335.723C475.749 335.504 475.696 335.312 475.591 335.148C475.489 334.98 475.344 334.849 475.157 334.756C474.972 334.662 474.756 334.615 474.509 334.615C474.259 334.615 474.03 334.661 473.823 334.751C473.615 334.839 473.449 334.966 473.324 335.131C473.199 335.295 473.132 335.489 473.124 335.71H471.355C471.364 335.207 471.507 334.764 471.786 334.381C472.064 333.997 472.439 333.697 472.911 333.482C473.385 333.263 473.921 333.153 474.517 333.153C475.12 333.153 475.647 333.263 476.098 333.482C476.55 333.7 476.901 333.996 477.151 334.368C477.404 334.737 477.529 335.152 477.526 335.612C477.529 336.101 477.377 336.509 477.07 336.835C476.766 337.162 476.37 337.369 475.881 337.457V337.526C476.523 337.608 477.012 337.831 477.347 338.195C477.685 338.555 477.853 339.007 477.85 339.55C477.853 340.047 477.709 340.489 477.419 340.875C477.132 341.261 476.736 341.565 476.23 341.787C475.725 342.009 475.145 342.119 474.492 342.119Z" fill="black"/>
<path d="M554.707 411V409.67L557.814 406.794C558.078 406.538 558.3 406.308 558.479 406.104C558.661 405.899 558.798 405.699 558.892 405.503C558.986 405.304 559.033 405.089 559.033 404.859C559.033 404.604 558.974 404.384 558.858 404.199C558.741 404.011 558.582 403.868 558.381 403.768C558.179 403.666 557.95 403.615 557.695 403.615C557.428 403.615 557.195 403.669 556.996 403.777C556.797 403.885 556.643 404.04 556.536 404.241C556.428 404.443 556.374 404.683 556.374 404.962H554.622C554.622 404.391 554.751 403.895 555.01 403.474C555.268 403.054 555.631 402.729 556.097 402.499C556.563 402.268 557.099 402.153 557.707 402.153C558.332 402.153 558.876 402.264 559.339 402.486C559.805 402.705 560.168 403.009 560.426 403.398C560.685 403.787 560.814 404.233 560.814 404.736C560.814 405.065 560.749 405.391 560.618 405.712C560.49 406.033 560.261 406.389 559.932 406.781C559.602 407.17 559.138 407.638 558.538 408.183L557.264 409.432V409.491H560.929V411H554.707ZM561.946 409.466V408.013L565.59 402.273H566.843V404.284H566.101L563.804 407.919V407.987H568.982V409.466H561.946ZM566.135 411V409.023L566.169 408.379V402.273H567.9V411H566.135Z" fill="black"/>
<path d="M306.504 422.273V431H304.659V424.024H304.608L302.609 425.277V423.641L304.77 422.273H306.504ZM311.766 431.119C311.164 431.119 310.627 431.009 310.155 430.787C309.686 430.565 309.314 430.26 309.039 429.871C308.763 429.482 308.62 429.036 308.608 428.533H310.398C310.418 428.871 310.56 429.145 310.824 429.355C311.088 429.565 311.402 429.67 311.766 429.67C312.056 429.67 312.311 429.607 312.533 429.479C312.757 429.348 312.932 429.168 313.057 428.938C313.185 428.705 313.249 428.437 313.249 428.136C313.249 427.83 313.184 427.56 313.053 427.327C312.925 427.094 312.748 426.912 312.52 426.781C312.293 426.651 312.033 426.584 311.74 426.581C311.485 426.581 311.236 426.634 310.995 426.739C310.756 426.844 310.57 426.987 310.436 427.169L308.796 426.875L309.209 422.273H314.544V423.781H310.73L310.505 425.967H310.556C310.709 425.751 310.941 425.572 311.25 425.43C311.56 425.288 311.907 425.217 312.29 425.217C312.816 425.217 313.284 425.341 313.696 425.588C314.108 425.835 314.434 426.175 314.672 426.607C314.911 427.036 315.029 427.53 315.026 428.089C315.029 428.678 314.892 429.2 314.617 429.658C314.344 430.112 313.962 430.47 313.471 430.732C312.982 430.99 312.414 431.119 311.766 431.119Z" fill="black"/>
<path d="M372.504 403.273V412H370.659V405.024H370.608L368.609 406.277V404.641L370.77 403.273H372.504ZM377.804 412.119C377.168 412.119 376.601 412.01 376.104 411.791C375.61 411.57 375.219 411.266 374.932 410.879C374.648 410.49 374.502 410.041 374.493 409.533H376.351C376.363 409.746 376.432 409.933 376.56 410.095C376.691 410.254 376.864 410.378 377.08 410.466C377.296 410.554 377.539 410.598 377.809 410.598C378.09 410.598 378.338 410.548 378.554 410.449C378.77 410.349 378.939 410.212 379.061 410.036C379.184 409.859 379.245 409.656 379.245 409.426C379.245 409.193 379.179 408.987 379.049 408.808C378.921 408.626 378.736 408.484 378.495 408.382C378.256 408.28 377.972 408.229 377.642 408.229H376.828V406.874H377.642C377.921 406.874 378.167 406.825 378.38 406.729C378.596 406.632 378.763 406.499 378.882 406.328C379.002 406.155 379.061 405.953 379.061 405.723C379.061 405.504 379.009 405.312 378.904 405.148C378.801 404.98 378.657 404.849 378.469 404.756C378.284 404.662 378.069 404.615 377.821 404.615C377.571 404.615 377.343 404.661 377.135 404.751C376.928 404.839 376.762 404.966 376.637 405.131C376.512 405.295 376.445 405.489 376.436 405.71H374.668C374.676 405.207 374.82 404.764 375.098 404.381C375.377 403.997 375.752 403.697 376.223 403.482C376.698 403.263 377.233 403.153 377.83 403.153C378.432 403.153 378.959 403.263 379.411 403.482C379.863 403.7 380.213 403.996 380.463 404.368C380.716 404.737 380.841 405.152 380.838 405.612C380.841 406.101 380.689 406.509 380.382 406.835C380.078 407.162 379.682 407.369 379.194 407.457V407.526C379.836 407.608 380.324 407.831 380.659 408.195C380.998 408.555 381.165 409.007 381.162 409.55C381.165 410.047 381.022 410.489 380.732 410.875C380.445 411.261 380.049 411.565 379.543 411.787C379.037 412.009 378.458 412.119 377.804 412.119Z" fill="black"/>
<path d="M321.504 362.273V371H319.659V364.024H319.608L317.609 365.277V363.641L319.77 362.273H321.504ZM323.578 371V369.67L326.685 366.794C326.949 366.538 327.171 366.308 327.35 366.104C327.532 365.899 327.669 365.699 327.763 365.503C327.857 365.304 327.904 365.089 327.904 364.859C327.904 364.604 327.846 364.384 327.729 364.199C327.613 364.011 327.453 363.868 327.252 363.768C327.05 363.666 326.821 363.615 326.566 363.615C326.299 363.615 326.066 363.669 325.867 363.777C325.668 363.885 325.515 364.04 325.407 364.241C325.299 364.443 325.245 364.683 325.245 364.962H323.493C323.493 364.391 323.623 363.895 323.881 363.474C324.14 363.054 324.502 362.729 324.968 362.499C325.434 362.268 325.971 362.153 326.578 362.153C327.203 362.153 327.748 362.264 328.211 362.486C328.676 362.705 329.039 363.009 329.297 363.398C329.556 363.787 329.685 364.233 329.685 364.736C329.685 365.065 329.62 365.391 329.489 365.712C329.361 366.033 329.132 366.389 328.803 366.781C328.473 367.17 328.009 367.638 327.409 368.183L326.135 369.432V369.491H329.8V371H323.578Z" fill="black"/>
<path d="M375.504 358.273V367H373.659V360.024H373.608L371.609 361.277V359.641L373.77 358.273H375.504ZM381.375 358.273V367H379.53V360.024H379.479L377.48 361.277V359.641L379.641 358.273H381.375Z" fill="black"/>
<path d="M468.504 450.273V459H466.659V452.024H466.608L464.609 453.277V451.641L466.77 450.273H468.504ZM470.446 457.466V456.013L474.09 450.273H475.343V452.284H474.601L472.304 455.919V455.987H477.482V457.466H470.446ZM474.635 459V457.023L474.669 456.379V450.273H476.4V459H474.635Z" fill="black"/>
<path d="M220.504 401.273V410H218.659V403.024H218.608L216.609 404.277V402.641L218.77 401.273H220.504ZM225.928 410.119C225.479 410.116 225.046 410.041 224.628 409.893C224.213 409.746 223.841 409.506 223.512 409.173C223.182 408.841 222.921 408.401 222.728 407.852C222.537 407.304 222.442 406.631 222.442 405.832C222.445 405.099 222.529 404.445 222.694 403.868C222.861 403.288 223.1 402.797 223.409 402.393C223.722 401.99 224.096 401.683 224.53 401.473C224.965 401.26 225.452 401.153 225.992 401.153C226.574 401.153 227.088 401.267 227.534 401.494C227.98 401.719 228.338 402.024 228.608 402.411C228.881 402.797 229.046 403.23 229.103 403.71H227.283C227.212 403.406 227.063 403.168 226.836 402.994C226.608 402.821 226.327 402.734 225.992 402.734C225.424 402.734 224.992 402.982 224.696 403.476C224.404 403.97 224.255 404.642 224.249 405.491H224.309C224.439 405.233 224.615 405.013 224.837 404.831C225.061 404.646 225.316 404.506 225.6 404.409C225.887 404.31 226.189 404.26 226.507 404.26C227.025 404.26 227.485 404.382 227.888 404.626C228.292 404.868 228.61 405.2 228.843 405.624C229.076 406.047 229.192 406.531 229.192 407.077C229.192 407.668 229.054 408.193 228.779 408.653C228.506 409.114 228.124 409.474 227.632 409.736C227.144 409.994 226.576 410.122 225.928 410.119ZM225.919 408.67C226.203 408.67 226.458 408.602 226.682 408.466C226.907 408.33 227.083 408.145 227.211 407.912C227.338 407.679 227.402 407.418 227.402 407.128C227.402 406.838 227.338 406.578 227.211 406.348C227.086 406.118 226.912 405.935 226.691 405.798C226.469 405.662 226.216 405.594 225.932 405.594C225.719 405.594 225.522 405.634 225.34 405.713C225.161 405.793 225.003 405.903 224.867 406.045C224.733 406.187 224.628 406.352 224.551 406.54C224.475 406.724 224.436 406.922 224.436 407.132C224.436 407.413 224.5 407.67 224.628 407.903C224.759 408.136 224.935 408.322 225.157 408.462C225.381 408.601 225.635 408.67 225.919 408.67Z" fill="black"/>
<path d="M198.504 347.273V356H196.659V349.024H196.608L194.609 350.277V348.641L196.77 347.273H198.504ZM200.924 356L204.542 348.841V348.781H200.327V347.273H206.451V348.803L202.828 356H200.924Z" fill="black"/>
<path d="M158.504 324.273V333H156.659V326.024H156.608L154.609 327.277V325.641L156.77 324.273H158.504ZM163.834 333.119C163.178 333.119 162.594 333.013 162.083 332.8C161.574 332.584 161.175 332.29 160.885 331.918C160.596 331.545 160.451 331.124 160.451 330.652C160.451 330.288 160.533 329.955 160.698 329.651C160.865 329.344 161.093 329.089 161.38 328.888C161.667 328.683 161.988 328.553 162.343 328.496V328.436C161.877 328.342 161.499 328.116 161.209 327.759C160.919 327.398 160.775 326.979 160.775 326.501C160.775 326.05 160.907 325.648 161.171 325.295C161.435 324.94 161.797 324.662 162.257 324.46C162.721 324.256 163.246 324.153 163.834 324.153C164.422 324.153 164.946 324.256 165.407 324.46C165.87 324.665 166.233 324.945 166.498 325.3C166.762 325.652 166.895 326.053 166.898 326.501C166.895 326.982 166.748 327.401 166.455 327.759C166.162 328.116 165.787 328.342 165.33 328.436V328.496C165.679 328.553 165.996 328.683 166.28 328.888C166.567 329.089 166.794 329.344 166.962 329.651C167.132 329.955 167.219 330.288 167.222 330.652C167.219 331.124 167.073 331.545 166.783 331.918C166.493 332.29 166.093 332.584 165.581 332.8C165.073 333.013 164.49 333.119 163.834 333.119ZM163.834 331.764C164.127 331.764 164.382 331.712 164.601 331.607C164.82 331.499 164.99 331.351 165.113 331.163C165.238 330.973 165.3 330.754 165.3 330.507C165.3 330.254 165.236 330.031 165.108 329.838C164.98 329.642 164.807 329.489 164.588 329.378C164.37 329.264 164.118 329.207 163.834 329.207C163.553 329.207 163.301 329.264 163.08 329.378C162.858 329.489 162.684 329.642 162.556 329.838C162.431 330.031 162.368 330.254 162.368 330.507C162.368 330.754 162.429 330.973 162.551 331.163C162.674 331.351 162.846 331.499 163.067 331.607C163.289 331.712 163.544 331.764 163.834 331.764ZM163.834 327.865C164.078 327.865 164.296 327.815 164.486 327.716C164.676 327.616 164.826 327.479 164.934 327.303C165.042 327.126 165.096 326.923 165.096 326.693C165.096 326.466 165.042 326.267 164.934 326.097C164.826 325.923 164.678 325.788 164.49 325.692C164.303 325.592 164.084 325.543 163.834 325.543C163.587 325.543 163.368 325.592 163.178 325.692C162.988 325.788 162.838 325.923 162.73 326.097C162.625 326.267 162.573 326.466 162.573 326.693C162.573 326.923 162.627 327.126 162.735 327.303C162.843 327.479 162.992 327.616 163.182 327.716C163.373 327.815 163.59 327.865 163.834 327.865Z" fill="black"/>
<path d="M77.5043 297.273V306H75.6591V299.024H75.608L73.6094 300.277V298.641L75.7699 297.273H77.5043ZM82.7362 297.153C83.185 297.153 83.6168 297.229 84.0316 297.379C84.4492 297.53 84.8214 297.77 85.1481 298.099C85.4776 298.429 85.7376 298.866 85.9279 299.412C86.1211 299.955 86.2191 300.621 86.2219 301.411C86.2219 302.152 86.1381 302.814 85.9705 303.396C85.8058 303.976 85.5685 304.469 85.2589 304.875C84.9492 305.281 84.5756 305.591 84.1381 305.804C83.7006 306.014 83.212 306.119 82.6722 306.119C82.0898 306.119 81.5756 306.007 81.1296 305.783C80.6836 305.555 80.3242 305.247 80.0515 304.858C79.7816 304.466 79.6183 304.026 79.5614 303.537H81.381C81.4521 303.855 81.6012 304.102 81.8285 304.278C82.0558 304.452 82.337 304.538 82.6722 304.538C83.2404 304.538 83.6722 304.291 83.9677 303.797C84.2631 303.3 84.4123 302.619 84.4151 301.756H84.3555C84.2248 302.011 84.0487 302.232 83.8271 302.416C83.6055 302.598 83.3512 302.739 83.0643 302.838C82.7802 302.938 82.4776 302.987 82.1566 302.987C81.6424 302.987 81.1836 302.866 80.7802 302.625C80.3768 302.384 80.0586 302.051 79.8256 301.628C79.5927 301.205 79.4762 300.722 79.4762 300.179C79.4734 299.594 79.6083 299.072 79.881 298.615C80.1538 298.158 80.5344 297.8 81.0231 297.541C81.5146 297.28 82.0856 297.151 82.7362 297.153ZM82.7489 298.602C82.462 298.602 82.2063 298.67 81.9819 298.807C81.7603 298.943 81.5842 299.126 81.4535 299.357C81.3256 299.587 81.2631 299.844 81.266 300.128C81.266 300.415 81.3285 300.673 81.4535 300.903C81.5813 301.131 81.7546 301.312 81.9734 301.449C82.195 301.582 82.4478 301.649 82.7319 301.649C82.945 301.649 83.1424 301.609 83.3242 301.53C83.506 301.45 83.6637 301.341 83.7972 301.202C83.9336 301.06 84.0401 300.896 84.1168 300.712C84.1935 300.527 84.2319 300.331 84.2319 300.124C84.229 299.848 84.1637 299.595 84.0359 299.365C83.908 299.135 83.7319 298.95 83.5075 298.811C83.283 298.672 83.0302 298.602 82.7489 298.602Z" fill="black"/>
<path d="M251.707 356V354.67L254.814 351.794C255.078 351.538 255.3 351.308 255.479 351.104C255.661 350.899 255.798 350.699 255.892 350.503C255.986 350.304 256.033 350.089 256.033 349.859C256.033 349.604 255.974 349.384 255.858 349.199C255.741 349.011 255.582 348.868 255.381 348.768C255.179 348.666 254.95 348.615 254.695 348.615C254.428 348.615 254.195 348.669 253.996 348.777C253.797 348.885 253.643 349.04 253.536 349.241C253.428 349.443 253.374 349.683 253.374 349.962H251.622C251.622 349.391 251.751 348.895 252.01 348.474C252.268 348.054 252.631 347.729 253.097 347.499C253.563 347.268 254.099 347.153 254.707 347.153C255.332 347.153 255.876 347.264 256.339 347.486C256.805 347.705 257.168 348.009 257.426 348.398C257.685 348.787 257.814 349.233 257.814 349.736C257.814 350.065 257.749 350.391 257.618 350.712C257.49 351.033 257.261 351.389 256.932 351.781C256.602 352.17 256.138 352.638 255.538 353.183L254.264 354.432V354.491H257.929V356H251.707ZM262.688 356.192C261.955 356.189 261.324 356.009 260.796 355.651C260.27 355.293 259.865 354.774 259.581 354.095C259.3 353.416 259.161 352.599 259.164 351.645C259.164 350.693 259.304 349.882 259.586 349.212C259.87 348.541 260.275 348.031 260.8 347.682C261.328 347.33 261.958 347.153 262.688 347.153C263.418 347.153 264.046 347.33 264.571 347.682C265.1 348.034 265.506 348.545 265.79 349.216C266.074 349.884 266.215 350.693 266.212 351.645C266.212 352.602 266.07 353.42 265.786 354.099C265.505 354.778 265.101 355.297 264.576 355.655C264.05 356.013 263.421 356.192 262.688 356.192ZM262.688 354.662C263.188 354.662 263.587 354.411 263.885 353.908C264.184 353.405 264.331 352.651 264.328 351.645C264.328 350.983 264.26 350.432 264.124 349.991C263.99 349.551 263.8 349.22 263.553 348.999C263.309 348.777 263.02 348.666 262.688 348.666C262.191 348.666 261.793 348.915 261.495 349.412C261.196 349.909 261.046 350.653 261.043 351.645C261.043 352.315 261.11 352.875 261.243 353.324C261.38 353.77 261.571 354.105 261.819 354.33C262.066 354.551 262.355 354.662 262.688 354.662Z" fill="black"/>
<path d="M352.707 312V310.67L355.814 307.794C356.078 307.538 356.3 307.308 356.479 307.104C356.661 306.899 356.798 306.699 356.892 306.503C356.986 306.304 357.033 306.089 357.033 305.859C357.033 305.604 356.974 305.384 356.858 305.199C356.741 305.011 356.582 304.868 356.381 304.768C356.179 304.666 355.95 304.615 355.695 304.615C355.428 304.615 355.195 304.669 354.996 304.777C354.797 304.885 354.643 305.04 354.536 305.241C354.428 305.443 354.374 305.683 354.374 305.962H352.622C352.622 305.391 352.751 304.895 353.01 304.474C353.268 304.054 353.631 303.729 354.097 303.499C354.563 303.268 355.099 303.153 355.707 303.153C356.332 303.153 356.876 303.264 357.339 303.486C357.805 303.705 358.168 304.009 358.426 304.398C358.685 304.787 358.814 305.233 358.814 305.736C358.814 306.065 358.749 306.391 358.618 306.712C358.49 307.033 358.261 307.389 357.932 307.781C357.602 308.17 357.138 308.638 356.538 309.183L355.264 310.432V310.491H358.929V312H352.707ZM364.063 303.273V312H362.218V305.024H362.167L360.168 306.277V304.641L362.328 303.273H364.063Z" fill="black"/>
<path d="M231.707 296V294.67L234.814 291.794C235.078 291.538 235.3 291.308 235.479 291.104C235.661 290.899 235.798 290.699 235.892 290.503C235.986 290.304 236.033 290.089 236.033 289.859C236.033 289.604 235.974 289.384 235.858 289.199C235.741 289.011 235.582 288.868 235.381 288.768C235.179 288.666 234.95 288.615 234.695 288.615C234.428 288.615 234.195 288.669 233.996 288.777C233.797 288.885 233.643 289.04 233.536 289.241C233.428 289.443 233.374 289.683 233.374 289.962H231.622C231.622 289.391 231.751 288.895 232.01 288.474C232.268 288.054 232.631 287.729 233.097 287.499C233.563 287.268 234.099 287.153 234.707 287.153C235.332 287.153 235.876 287.264 236.339 287.486C236.805 287.705 237.168 288.009 237.426 288.398C237.685 288.787 237.814 289.233 237.814 289.736C237.814 290.065 237.749 290.391 237.618 290.712C237.49 291.033 237.261 291.389 236.932 291.781C236.602 292.17 236.138 292.638 235.538 293.183L234.264 294.432V294.491H237.929V296H231.707ZM239.266 296V294.67L242.373 291.794C242.637 291.538 242.858 291.308 243.037 291.104C243.219 290.899 243.357 290.699 243.451 290.503C243.544 290.304 243.591 290.089 243.591 289.859C243.591 289.604 243.533 289.384 243.417 289.199C243.3 289.011 243.141 288.868 242.939 288.768C242.738 288.666 242.509 288.615 242.253 288.615C241.986 288.615 241.753 288.669 241.554 288.777C241.355 288.885 241.202 289.04 241.094 289.241C240.986 289.443 240.932 289.683 240.932 289.962H239.181C239.181 289.391 239.31 288.895 239.569 288.474C239.827 288.054 240.189 287.729 240.655 287.499C241.121 287.268 241.658 287.153 242.266 287.153C242.891 287.153 243.435 287.264 243.898 287.486C244.364 287.705 244.726 288.009 244.985 288.398C245.243 288.787 245.373 289.233 245.373 289.736C245.373 290.065 245.307 290.391 245.176 290.712C245.049 291.033 244.82 291.389 244.49 291.781C244.161 292.17 243.696 292.638 243.097 293.183L241.823 294.432V294.491H245.488V296H239.266Z" fill="black"/>
</svg>
